<?xml version="1.0" encoding="UTF-8" ?>
<!DOCTYPE svg PUBLIC "-//W3C//DTD SVG 1.1//EN" "http://www.w3.org/Graphics/SVG/1.1/DTD/svg11.dtd">
<svg width="720pt" height="160pt" viewBox="0 0 720 160" version="1.1" xmlns="http://www.w3.org/2000/svg">
<g id="#000000ff">
<path fill="#000000" opacity="1.00" d=" M 0.00 0.00 L 720.00 0.00 L 720.00 160.00 L 0.00 160.00 L 0.00 0.00 M 8.02 8.01 C 8.02 56.07 8.04 104.13 8.01 152.20 L 8.39 151.95 C 56.59 152.06 104.80 151.97 153.00 152.00 C 339.33 152.00 525.67 152.00 712.00 152.00 C 712.00 104.00 712.00 56.00 712.00 8.00 C 525.67 8.00 339.33 8.00 153.00 8.00 C 104.67 8.03 56.35 8.00 8.02 8.01 Z" />
</g>
<g id="#003064ff">
<path fill="#003064" opacity="1.00" d=" M 8.02 8.01 C 56.35 8.00 104.67 8.03 153.00 8.00 C 153.00 25.89 153.00 43.77 153.00 61.66 C 144.98 66.49 137.19 71.74 129.03 76.33 C 129.48 70.85 130.40 65.43 131.08 59.98 C 131.60 55.32 128.53 50.17 123.77 49.22 C 120.54 48.64 117.24 48.91 113.98 48.87 C 89.04 48.88 64.09 48.89 39.15 48.86 C 37.92 43.89 35.86 38.62 31.31 35.80 C 28.64 34.05 25.31 35.00 22.34 34.47 C 20.20 32.43 17.84 29.03 14.41 30.47 C 9.27 31.82 8.54 39.64 13.26 41.97 C 16.76 44.23 20.43 41.43 22.26 38.43 C 24.23 38.48 26.28 38.20 28.20 38.76 C 30.59 40.00 32.07 42.43 33.09 44.84 C 35.49 50.87 35.84 57.43 37.19 63.74 C 39.59 77.11 42.06 90.48 44.39 103.87 C 45.04 108.58 49.10 112.58 53.91 112.77 C 59.36 113.04 64.82 112.72 70.27 112.91 C 66.57 116.05 62.07 118.03 58.27 121.04 C 54.45 120.97 50.81 123.02 49.24 126.56 C 35.52 134.85 22.00 143.48 8.39 151.95 L 8.01 152.20 C 8.04 104.13 8.02 56.07 8.02 8.01 Z" />
<path fill="#003064" opacity="1.00" d=" M 173.00 46.00 C 184.35 46.05 195.69 45.93 207.03 46.06 C 216.91 46.30 227.94 49.76 233.14 58.81 C 239.42 70.31 237.07 87.15 225.52 94.48 C 217.08 100.14 206.52 100.19 196.75 99.99 C 196.75 106.66 196.74 113.32 196.76 119.99 C 188.84 120.01 180.92 119.98 173.00 120.00 C 173.01 95.33 173.01 70.67 173.00 46.00 M 196.75 65.75 C 196.74 71.25 196.75 76.75 196.75 82.24 C 201.02 82.11 205.72 82.93 209.58 80.63 C 214.45 77.75 214.16 69.18 208.87 66.91 C 205.07 65.23 200.78 65.87 196.75 65.75 Z" />
<path fill="#003064" opacity="1.00" d=" M 235.74 46.01 C 244.61 46.00 253.47 46.02 262.34 46.00 C 267.05 59.72 271.11 73.69 276.21 87.26 C 280.76 73.51 285.27 59.75 289.81 46.01 C 298.54 46.00 307.28 46.01 316.01 46.00 C 306.43 71.00 296.84 96.00 287.25 121.00 C 279.64 120.95 272.02 121.08 264.41 120.93 C 254.96 95.92 245.28 70.99 235.74 46.01 Z" />
<path fill="#003064" opacity="1.00" d=" M 319.01 46.00 C 332.66 46.02 346.31 45.99 359.96 46.01 C 366.38 46.09 373.30 47.35 378.15 51.88 C 383.77 56.95 384.63 65.85 381.48 72.47 C 379.42 76.77 375.25 79.45 371.04 81.33 C 376.62 82.92 382.31 86.23 384.47 91.91 C 387.13 99.01 385.81 107.88 380.09 113.14 C 374.45 118.41 366.41 119.92 358.94 120.03 C 345.63 120.11 332.32 120.04 319.01 120.06 C 319.00 95.38 319.01 70.69 319.01 46.00 M 342.00 64.75 C 341.99 68.17 341.99 71.58 342.00 75.00 C 347.05 74.73 352.32 75.73 357.22 74.16 C 360.91 72.88 360.90 66.83 357.18 65.58 C 352.31 63.99 347.04 65.05 342.00 64.75 M 342.00 90.25 C 341.99 93.91 341.99 97.58 342.00 101.25 C 347.52 100.94 353.24 102.00 358.62 100.48 C 362.91 99.25 363.10 92.53 358.85 91.12 C 353.43 89.41 347.59 90.60 342.00 90.25 Z" />
<path fill="#003064" opacity="1.00" d=" M 40.06 53.62 C 66.71 53.56 93.35 53.62 119.99 53.59 C 123.50 53.15 126.84 56.38 126.31 59.92 C 125.76 66.50 124.48 73.00 124.03 79.59 C 119.73 82.48 115.20 85.01 111.03 88.08 C 102.94 84.09 94.97 79.85 86.86 75.92 C 85.33 74.83 83.01 76.05 83.91 78.03 C 85.84 85.54 88.46 92.87 90.70 100.30 C 86.30 103.59 81.49 106.25 76.89 109.24 C 69.59 109.24 62.29 109.35 54.99 109.21 C 52.07 109.30 50.34 106.69 48.99 104.49 C 61.66 103.93 74.28 102.75 86.94 102.12 C 86.56 100.56 86.16 99.00 85.75 97.44 C 73.22 97.84 60.73 99.16 48.21 99.80 C 45.77 84.36 42.62 69.04 40.06 53.62 M 79.16 60.21 C 78.84 63.57 81.33 66.27 82.51 69.23 C 83.74 68.85 84.14 67.66 83.26 66.61 C 82.11 64.37 81.53 61.51 79.16 60.21 M 92.22 61.02 C 91.36 63.43 90.17 65.74 89.60 68.25 C 89.39 69.13 89.74 69.74 90.65 70.08 C 91.73 67.29 93.24 64.58 93.65 61.60 C 93.29 61.46 92.58 61.16 92.22 61.02 M 69.21 70.68 C 71.94 71.81 74.72 72.79 77.51 73.73 C 78.34 72.53 77.42 71.28 76.15 71.17 C 74.15 70.43 72.15 69.64 70.07 69.14 C 69.86 69.52 69.43 70.29 69.21 70.68 M 95.19 73.42 C 94.15 73.85 93.78 74.69 94.10 75.94 C 96.81 74.44 101.23 74.26 102.21 70.89 C 99.65 70.93 97.42 72.32 95.19 73.42 M 69.04 82.33 C 69.00 82.78 68.92 83.68 68.88 84.12 C 71.65 83.25 74.33 82.08 76.85 80.63 C 76.91 80.18 77.02 79.29 77.07 78.85 C 74.27 79.67 71.55 80.83 69.04 82.33 M 80.23 84.71 C 79.39 87.70 76.62 90.83 78.06 94.02 C 80.09 91.64 80.79 88.48 81.68 85.56 C 81.32 85.35 80.59 84.92 80.23 84.71 Z" />
<path fill="#003064" opacity="1.00" d=" M 88.87 81.49 C 94.82 84.51 100.87 87.33 106.69 90.61 C 102.43 93.11 98.36 95.93 94.04 98.34 C 92.37 92.71 90.45 87.15 88.87 81.49 Z" />
</g>
<g id="#ffffffff">
<path fill="#ffffff" opacity="1.00" d=" M 153.00 8.00 C 339.33 8.00 525.67 8.00 712.00 8.00 C 712.00 56.00 712.00 104.00 712.00 152.00 C 525.67 152.00 339.33 152.00 153.00 152.00 C 153.00 121.89 153.00 91.77 153.00 61.66 C 153.00 43.77 153.00 25.89 153.00 8.00 M 173.00 46.00 C 173.01 70.67 173.01 95.33 173.00 120.00 C 180.92 119.98 188.84 120.01 196.76 119.99 C 196.74 113.32 196.75 106.66 196.75 99.99 C 206.52 100.19 217.08 100.14 225.52 94.48 C 237.07 87.15 239.42 70.31 233.14 58.81 C 227.94 49.76 216.91 46.30 207.03 46.06 C 195.69 45.93 184.35 46.05 173.00 46.00 M 235.74 46.01 C 245.28 70.99 254.96 95.92 264.41 120.93 C 272.02 121.08 279.64 120.95 287.25 121.00 C 296.84 96.00 306.43 71.00 316.01 46.00 C 307.28 46.01 298.54 46.00 289.81 46.01 C 285.27 59.75 280.76 73.51 276.21 87.26 C 271.11 73.69 267.05 59.72 262.34 46.00 C 253.47 46.02 244.61 46.00 235.74 46.01 M 319.01 46.00 C 319.01 70.69 319.00 95.38 319.01 120.06 C 332.32 120.04 345.63 120.11 358.94 120.03 C 366.41 119.92 374.45 118.41 380.09 113.14 C 385.81 107.88 387.13 99.01 384.47 91.91 C 382.31 86.23 376.62 82.92 371.04 81.33 C 375.25 79.45 379.42 76.77 381.48 72.47 C 384.63 65.85 383.77 56.95 378.15 51.88 C 373.30 47.35 366.38 46.09 359.96 46.01 C 346.31 45.99 332.66 46.02 319.01 46.00 M 474.02 61.06 C 471.02 68.55 471.95 78.21 478.26 83.75 C 483.25 87.93 489.82 89.31 495.87 91.28 C 499.29 92.38 503.64 93.27 505.05 97.07 C 506.76 102.10 502.85 107.56 497.97 108.84 C 493.18 110.07 487.85 109.83 483.38 107.65 C 479.97 105.99 477.85 102.70 476.31 99.38 C 472.42 100.94 468.40 102.15 464.60 103.94 C 467.13 110.85 472.20 117.09 479.35 119.48 C 487.80 122.28 497.45 122.23 505.65 118.64 C 517.63 113.23 523.14 95.99 514.59 85.42 C 508.19 77.93 497.56 77.96 489.30 73.78 C 485.60 72.14 484.60 67.16 486.85 63.95 C 490.06 59.14 496.83 58.71 501.94 60.16 C 505.72 61.18 508.18 64.46 509.82 67.82 C 513.74 66.26 517.71 64.82 521.58 63.15 C 519.57 58.62 516.68 54.33 512.46 51.58 C 505.92 47.26 497.54 46.86 490.04 48.35 C 483.10 49.73 476.71 54.40 474.02 61.06 M 423.45 62.39 C 427.60 62.46 431.75 62.44 435.90 62.42 C 436.60 57.82 437.36 53.24 438.05 48.65 C 433.90 48.51 429.75 48.58 425.61 48.56 C 424.86 53.17 424.05 57.76 423.45 62.39 M 539.62 52.39 C 538.66 57.46 537.66 62.52 536.65 67.57 C 534.20 67.57 531.76 67.56 529.32 67.61 C 528.79 71.20 528.22 74.79 527.74 78.39 C 530.09 78.43 532.45 78.43 534.81 78.43 C 533.34 87.93 531.43 97.37 530.28 106.92 C 529.61 111.13 531.23 115.73 534.83 118.16 C 539.75 121.34 545.92 120.23 551.46 120.42 C 552.02 116.84 552.55 113.25 553.06 109.66 C 549.93 109.42 546.46 110.06 543.68 108.30 C 541.79 106.93 542.42 104.40 542.61 102.45 C 543.87 94.44 545.18 86.44 546.48 78.43 C 550.16 78.43 553.83 78.43 557.51 78.43 C 558.07 74.84 558.61 71.24 559.08 67.63 C 555.46 67.55 551.84 67.55 548.22 67.57 C 549.04 62.25 549.99 56.94 550.74 51.61 C 547.03 51.77 543.32 52.05 539.62 52.39 M 582.25 67.21 C 571.25 69.66 564.23 80.50 562.55 91.08 C 561.31 99.70 562.19 109.81 568.90 116.11 C 577.33 123.27 591.42 123.37 599.30 115.28 C 606.20 108.10 609.75 97.89 608.91 87.97 C 608.56 81.39 605.87 74.65 600.54 70.56 C 595.43 66.55 588.43 65.85 582.25 67.21 M 634.94 78.25 C 635.35 74.69 636.00 71.17 636.45 67.61 C 632.81 67.55 629.17 67.55 625.54 67.58 C 622.80 85.18 619.91 102.76 617.29 120.39 C 621.18 120.45 625.07 120.44 628.97 120.42 C 630.43 111.69 631.52 102.89 633.32 94.22 C 634.17 89.87 636.22 85.52 640.09 83.09 C 643.40 80.62 647.66 80.62 651.53 79.77 C 651.98 75.37 652.54 70.99 653.01 66.60 C 644.83 65.37 638.71 71.87 634.94 78.25 M 668.55 70.61 C 658.55 77.87 654.68 91.26 656.31 103.14 C 657.16 109.69 660.93 116.06 666.93 119.09 C 672.34 121.79 678.80 122.05 684.58 120.44 C 691.99 118.25 697.36 111.74 699.94 104.67 C 696.40 103.95 692.87 103.16 689.31 102.59 C 686.85 108.39 680.18 112.20 674.01 110.00 C 668.50 108.19 666.91 101.48 668.02 96.36 C 679.26 96.52 690.51 96.38 701.75 96.44 C 701.56 89.37 702.92 81.60 698.71 75.36 C 692.80 65.01 677.65 64.21 668.55 70.61 M 422.54 67.57 C 419.73 85.16 416.90 102.74 414.12 120.33 C 418.25 120.50 422.38 120.41 426.51 120.45 C 429.40 102.86 432.17 85.26 434.97 67.66 C 430.83 67.51 426.68 67.57 422.54 67.57 M 437.94 99.36 C 446.26 99.51 454.59 99.41 462.92 99.42 C 463.41 95.81 463.93 92.22 464.36 88.61 C 456.06 88.50 447.76 88.64 439.46 88.53 C 438.86 92.12 438.39 95.74 437.94 99.36 Z" />
<path fill="#ffffff" opacity="1.00" d=" M 14.41 30.47 C 17.84 29.03 20.20 32.43 22.34 34.47 C 25.31 35.00 28.64 34.05 31.31 35.80 C 35.86 38.62 37.92 43.89 39.15 48.86 C 64.09 48.89 89.04 48.88 113.98 48.87 C 117.24 48.91 120.54 48.64 123.77 49.22 C 128.53 50.17 131.60 55.32 131.08 59.98 C 130.40 65.43 129.48 70.85 129.03 76.33 C 128.40 81.39 128.05 86.51 126.76 91.45 C 125.35 90.76 123.95 90.05 122.56 89.33 C 123.17 86.10 123.67 82.85 124.03 79.59 C 124.48 73.00 125.76 66.50 126.31 59.92 C 126.84 56.38 123.50 53.15 119.99 53.59 C 93.35 53.62 66.71 53.56 40.06 53.62 C 42.62 69.04 45.77 84.36 48.21 99.80 C 60.73 99.16 73.22 97.84 85.75 97.44 C 86.16 99.00 86.56 100.56 86.94 102.12 C 74.28 102.75 61.66 103.93 48.99 104.49 C 50.34 106.69 52.07 109.30 54.99 109.21 C 62.29 109.35 69.59 109.24 76.89 109.24 C 80.96 109.23 85.04 109.28 89.12 109.39 C 89.53 110.56 89.92 111.73 90.30 112.91 C 83.62 112.91 76.95 112.88 70.27 112.91 C 64.82 112.72 59.36 113.04 53.91 112.77 C 49.10 112.58 45.04 108.58 44.39 103.87 C 42.06 90.48 39.59 77.11 37.19 63.74 C 35.84 57.43 35.49 50.87 33.09 44.84 C 32.07 42.43 30.59 40.00 28.20 38.76 C 26.28 38.20 24.23 38.48 22.26 38.43 C 20.43 41.43 16.76 44.23 13.26 41.97 C 8.54 39.64 9.27 31.82 14.41 30.47 Z" />
<path fill="#ffffff" opacity="1.00" d=" M 79.16 60.21 C 81.53 61.51 82.11 64.37 83.26 66.61 C 84.14 67.66 83.74 68.85 82.51 69.23 C 81.33 66.27 78.84 63.57 79.16 60.21 Z" />
<path fill="#ffffff" opacity="1.00" d=" M 92.22 61.02 C 92.58 61.16 93.29 61.46 93.65 61.60 C 93.24 64.58 91.73 67.29 90.65 70.08 C 89.74 69.74 89.39 69.13 89.60 68.25 C 90.17 65.74 91.36 63.43 92.22 61.02 Z" />
<path fill="#ffffff" opacity="1.00" d=" M 342.00 64.75 C 347.04 65.05 352.31 63.99 357.18 65.58 C 360.90 66.83 360.91 72.88 357.22 74.16 C 352.32 75.73 347.05 74.73 342.00 75.00 C 341.99 71.58 341.99 68.17 342.00 64.75 Z" />
<path fill="#ffffff" opacity="1.00" d=" M 196.75 65.75 C 200.78 65.87 205.07 65.23 208.87 66.91 C 214.16 69.18 214.45 77.75 209.58 80.63 C 205.72 82.93 201.02 82.11 196.75 82.24 C 196.75 76.75 196.74 71.25 196.75 65.75 Z" />
<path fill="#ffffff" opacity="1.00" d=" M 69.21 70.68 C 69.43 70.29 69.86 69.52 70.07 69.14 C 72.15 69.64 74.15 70.43 76.15 71.17 C 77.42 71.28 78.34 72.53 77.51 73.73 C 74.72 72.79 71.94 71.81 69.21 70.68 Z" />
<path fill="#ffffff" opacity="1.00" d=" M 95.19 73.42 C 97.42 72.32 99.65 70.93 102.21 70.89 C 101.23 74.26 96.81 74.44 94.10 75.94 C 93.78 74.69 94.15 73.85 95.19 73.42 Z" />
<path fill="#ffffff" opacity="1.00" d=" M 83.91 78.03 C 83.01 76.05 85.33 74.83 86.86 75.92 C 94.97 79.85 102.94 84.09 111.03 88.08 C 113.86 89.59 116.82 90.87 119.56 92.54 C 120.54 93.02 121.81 94.53 120.53 95.45 C 117.91 97.37 114.53 97.91 111.68 99.45 C 114.99 103.14 118.01 107.08 121.12 110.93 C 121.84 111.92 123.36 113.59 121.82 114.63 C 119.45 116.66 117.15 119.32 114.01 120.02 C 109.94 115.96 107.01 110.92 103.42 106.44 C 101.47 109.24 100.26 112.48 98.29 115.26 C 97.63 116.71 95.64 116.17 95.30 114.81 C 93.52 110.06 92.28 105.12 90.70 100.30 C 88.46 92.87 85.84 85.54 83.91 78.03 M 88.87 81.49 C 90.45 87.15 92.37 92.71 94.04 98.34 C 95.00 101.93 96.33 105.41 97.30 109.00 C 99.02 106.38 100.03 103.31 102.05 100.89 C 102.49 100.93 103.35 101.00 103.79 101.03 C 107.72 105.58 111.08 110.60 114.89 115.26 C 115.89 114.53 116.89 113.80 117.89 113.07 C 114.59 109.06 111.40 104.96 108.16 100.89 C 107.19 99.83 106.66 98.50 106.88 97.05 C 109.36 96.18 111.83 95.26 114.18 94.07 C 111.68 92.93 109.29 91.52 106.69 90.61 C 100.87 87.33 94.82 84.51 88.87 81.49 Z" />
<path fill="#ffffff" opacity="1.00" d=" M 675.92 76.95 C 679.47 74.97 684.38 74.70 687.73 77.24 C 690.77 79.72 691.00 83.94 691.41 87.54 C 684.04 87.60 676.67 87.56 669.31 87.56 C 670.48 83.54 672.09 79.16 675.92 76.95 Z" />
<path fill="#ffffff" opacity="1.00" d=" M 582.31 78.52 C 585.57 76.93 589.83 76.99 592.84 79.13 C 596.08 81.68 596.54 86.16 596.61 89.99 C 596.52 95.86 595.15 101.93 591.80 106.81 C 587.96 112.31 578.32 111.65 575.52 105.47 C 573.38 100.39 574.33 94.62 575.62 89.44 C 576.82 85.35 578.30 80.69 582.31 78.52 Z" />
<path fill="#ffffff" opacity="1.00" d=" M 69.04 82.33 C 71.55 80.83 74.27 79.67 77.07 78.85 C 77.02 79.29 76.91 80.18 76.85 80.63 C 74.33 82.08 71.65 83.25 68.88 84.12 C 68.92 83.68 69.00 82.78 69.04 82.33 Z" />
<path fill="#ffffff" opacity="1.00" d=" M 80.23 84.71 C 80.59 84.92 81.32 85.35 81.68 85.56 C 80.79 88.48 80.09 91.64 78.06 94.02 C 76.62 90.83 79.39 87.70 80.23 84.71 Z" />
<path fill="#ffffff" opacity="1.00" d=" M 342.00 90.25 C 347.59 90.60 353.43 89.41 358.85 91.12 C 363.10 92.53 362.91 99.25 358.62 100.48 C 353.24 102.00 347.52 100.94 342.00 101.25 C 341.99 97.58 341.99 93.91 342.00 90.25 Z" />
<path fill="#ffffff" opacity="1.00" d=" M 49.24 126.56 C 50.81 123.02 54.45 120.97 58.27 121.04 C 60.90 122.07 63.61 123.65 64.48 126.54 C 66.75 131.86 61.72 138.48 56.02 137.77 C 50.97 136.92 47.89 131.40 49.24 126.56 M 55.40 125.47 C 53.51 126.08 52.42 128.05 52.83 129.98 C 52.89 133.84 58.88 135.11 60.59 131.65 C 62.98 128.42 58.92 123.78 55.40 125.47 Z" />
<path fill="#ffffff" opacity="1.00" d=" M 100.20 122.17 C 104.00 120.17 109.48 121.79 111.01 125.97 C 113.60 130.67 109.87 136.78 104.88 137.74 C 100.12 138.41 95.28 133.83 95.81 129.00 C 95.77 126.09 97.65 123.44 100.20 122.17 M 102.33 125.43 C 99.19 126.43 98.43 131.18 101.37 132.88 C 103.77 134.90 107.75 132.97 108.12 130.00 C 108.69 126.97 105.13 124.17 102.33 125.43 Z" />
</g>
<g id="#2ba194ff">
<path fill="#2ba194" opacity="1.00" d=" M 474.02 61.06 C 476.71 54.40 483.10 49.73 490.04 48.35 C 497.54 46.86 505.92 47.26 512.46 51.58 C 516.68 54.33 519.57 58.62 521.58 63.15 C 517.71 64.82 513.74 66.26 509.82 67.82 C 508.18 64.46 505.72 61.18 501.94 60.16 C 496.83 58.71 490.06 59.14 486.85 63.95 C 484.60 67.16 485.60 72.14 489.30 73.78 C 497.56 77.96 508.19 77.93 514.59 85.42 C 523.14 95.99 517.63 113.23 505.65 118.64 C 497.45 122.23 487.80 122.28 479.35 119.48 C 472.20 117.09 467.13 110.85 464.60 103.94 C 468.40 102.15 472.42 100.94 476.31 99.38 C 477.85 102.70 479.97 105.99 483.38 107.65 C 487.85 109.83 493.18 110.07 497.97 108.84 C 502.85 107.56 506.76 102.10 505.05 97.07 C 503.64 93.27 499.29 92.38 495.87 91.28 C 489.82 89.31 483.25 87.93 478.26 83.75 C 471.95 78.21 471.02 68.55 474.02 61.06 Z" />
<path fill="#2ba194" opacity="1.00" d=" M 423.45 62.39 C 424.05 57.76 424.86 53.17 425.61 48.56 C 429.75 48.58 433.90 48.51 438.05 48.65 C 437.36 53.24 436.60 57.82 435.90 62.42 C 431.75 62.44 427.60 62.46 423.45 62.39 Z" />
<path fill="#2ba194" opacity="1.00" d=" M 539.62 52.39 C 543.32 52.05 547.03 51.77 550.74 51.61 C 549.99 56.94 549.04 62.25 548.22 67.57 C 551.84 67.55 555.46 67.55 559.08 67.63 C 558.61 71.24 558.07 74.84 557.51 78.43 C 553.83 78.43 550.16 78.43 546.48 78.43 C 545.18 86.44 543.87 94.44 542.61 102.45 C 542.42 104.40 541.79 106.93 543.68 108.30 C 546.46 110.06 549.93 109.42 553.06 109.66 C 552.55 113.25 552.02 116.84 551.46 120.42 C 545.92 120.23 539.75 121.34 534.83 118.16 C 531.23 115.73 529.61 111.13 530.28 106.92 C 531.43 97.37 533.34 87.93 534.81 78.43 C 532.45 78.43 530.09 78.43 527.74 78.39 C 528.22 74.79 528.79 71.20 529.32 67.61 C 531.76 67.56 534.20 67.57 536.65 67.57 C 537.66 62.52 538.66 57.46 539.62 52.39 Z" />
<path fill="#2ba194" opacity="1.00" d=" M 129.03 76.33 C 137.19 71.74 144.98 66.49 153.00 61.66 C 153.00 91.77 153.00 121.89 153.00 152.00 C 104.80 151.97 56.59 152.06 8.39 151.95 C 22.00 143.48 35.52 134.85 49.24 126.56 C 47.89 131.40 50.97 136.92 56.02 137.77 C 61.72 138.48 66.75 131.86 64.48 126.54 C 63.61 123.65 60.90 122.07 58.27 121.04 C 62.07 118.03 66.57 116.05 70.27 112.91 C 76.95 112.88 83.62 112.91 90.30 112.91 C 89.92 111.73 89.53 110.56 89.12 109.39 C 85.04 109.28 80.96 109.23 76.89 109.24 C 81.49 106.25 86.30 103.59 90.70 100.30 C 92.28 105.12 93.52 110.06 95.30 114.81 C 95.64 116.17 97.63 116.71 98.29 115.26 C 100.26 112.48 101.47 109.24 103.42 106.44 C 107.01 110.92 109.94 115.96 114.01 120.02 C 117.15 119.32 119.45 116.66 121.82 114.63 C 123.36 113.59 121.84 111.92 121.12 110.93 C 118.01 107.08 114.99 103.14 111.68 99.45 C 114.53 97.91 117.91 97.37 120.53 95.45 C 121.81 94.53 120.54 93.02 119.56 92.54 C 116.82 90.87 113.86 89.59 111.03 88.08 C 115.20 85.01 119.73 82.48 124.03 79.59 C 123.67 82.85 123.17 86.10 122.56 89.33 C 123.95 90.05 125.35 90.76 126.76 91.45 C 128.05 86.51 128.40 81.39 129.03 76.33 M 100.20 122.17 C 97.65 123.44 95.77 126.09 95.81 129.00 C 95.28 133.83 100.12 138.41 104.88 137.74 C 109.87 136.78 113.60 130.67 111.01 125.97 C 109.48 121.79 104.00 120.17 100.20 122.17 Z" />
<path fill="#2ba194" opacity="1.00" d=" M 582.25 67.21 C 588.43 65.85 595.43 66.55 600.54 70.56 C 605.87 74.65 608.56 81.39 608.91 87.97 C 609.75 97.89 606.20 108.10 599.30 115.28 C 591.42 123.37 577.33 123.27 568.90 116.11 C 562.19 109.81 561.31 99.70 562.55 91.08 C 564.23 80.50 571.25 69.66 582.25 67.21 M 582.31 78.52 C 578.30 80.69 576.82 85.35 575.62 89.44 C 574.33 94.62 573.38 100.39 575.52 105.47 C 578.32 111.65 587.96 112.31 591.80 106.81 C 595.15 101.93 596.52 95.86 596.61 89.99 C 596.54 86.16 596.08 81.68 592.84 79.13 C 589.83 76.99 585.57 76.93 582.31 78.52 Z" />
<path fill="#2ba194" opacity="1.00" d=" M 634.94 78.25 C 638.71 71.87 644.83 65.37 653.01 66.60 C 652.54 70.99 651.98 75.37 651.53 79.77 C 647.66 80.62 643.40 80.62 640.09 83.09 C 636.22 85.52 634.17 89.87 633.32 94.22 C 631.52 102.89 630.43 111.69 628.97 120.42 C 625.07 120.44 621.18 120.45 617.29 120.39 C 619.91 102.76 622.80 85.18 625.54 67.58 C 629.17 67.55 632.81 67.55 636.45 67.61 C 636.00 71.17 635.35 74.69 634.94 78.25 Z" />
<path fill="#2ba194" opacity="1.00" d=" M 668.55 70.61 C 677.65 64.21 692.80 65.01 698.71 75.36 C 702.92 81.60 701.56 89.37 701.75 96.44 C 690.51 96.38 679.26 96.52 668.02 96.36 C 666.91 101.48 668.50 108.19 674.01 110.00 C 680.18 112.20 686.85 108.39 689.31 102.59 C 692.87 103.16 696.40 103.95 699.94 104.67 C 697.36 111.74 691.99 118.25 684.58 120.44 C 678.80 122.05 672.34 121.79 666.93 119.09 C 660.93 116.06 657.16 109.69 656.31 103.14 C 654.68 91.26 658.55 77.87 668.55 70.61 M 675.92 76.95 C 672.09 79.16 670.48 83.54 669.31 87.56 C 676.67 87.56 684.04 87.60 691.41 87.54 C 691.00 83.94 690.77 79.72 687.73 77.24 C 684.38 74.70 679.47 74.97 675.92 76.95 Z" />
<path fill="#2ba194" opacity="1.00" d=" M 422.54 67.57 C 426.68 67.57 430.83 67.51 434.97 67.66 C 432.17 85.26 429.40 102.86 426.51 120.45 C 422.38 120.41 418.25 120.50 414.12 120.33 C 416.90 102.74 419.73 85.16 422.54 67.57 Z" />
<path fill="#2ba194" opacity="1.00" d=" M 437.94 99.36 C 438.39 95.74 438.86 92.12 439.46 88.53 C 447.76 88.64 456.06 88.50 464.36 88.61 C 463.93 92.22 463.41 95.81 462.92 99.42 C 454.59 99.41 446.26 99.51 437.94 99.36 Z" />
<path fill="#2ba194" opacity="1.00" d=" M 94.04 98.34 C 98.36 95.93 102.43 93.11 106.69 90.61 C 109.29 91.52 111.68 92.93 114.18 94.07 C 111.83 95.26 109.36 96.18 106.88 97.05 C 106.66 98.50 107.19 99.83 108.16 100.89 C 111.40 104.96 114.59 109.06 117.89 113.07 C 116.89 113.80 115.89 114.53 114.89 115.26 C 111.08 110.60 107.72 105.58 103.79 101.03 C 103.35 101.00 102.49 100.93 102.05 100.89 C 100.03 103.31 99.02 106.38 97.30 109.00 C 96.33 105.41 95.00 101.93 94.04 98.34 Z" />
<path fill="#2ba194" opacity="1.00" d=" M 55.40 125.47 C 58.92 123.78 62.98 128.42 60.59 131.65 C 58.88 135.11 52.89 133.84 52.83 129.98 C 52.42 128.05 53.51 126.08 55.40 125.47 Z" />
<path fill="#2ba194" opacity="1.00" d=" M 102.33 125.43 C 105.13 124.17 108.69 126.97 108.12 130.00 C 107.75 132.97 103.77 134.90 101.37 132.88 C 98.43 131.18 99.19 126.43 102.33 125.43 Z" />
</g>
</svg>
